# xmcd
#
# Track frame offsets: 
#        150
#        23372
#        43907
#        62204
#        91224
#        114707
#        136309
#        155957
#        169482
#        184257
#        199830
#        225095
#        246185
#        264110
#        281278
#
# Disc length: 4101 seconds
#
# Revision: 0
# Processed by: cddbd v1.5.2PL0 Copyright (c) Steve Scherf et al.
# Submitted via: ExactAudioCopy v0.99pb4
#
DISCID=cc10030f
DTITLE=Various Artist - Billboard 1973
DYEAR=2000
DGENRE=Other
TTITLE0=Bachman-Turner Overdrive - Hold Back the Water
TTITLE1=The Rolling Stones - Angie
TTITLE2=The Sweet - The Ballroom Blitz
TTITLE3=Golden Earring - Radar Love
TTITLE4=Paul McCartney and Wings - Band on the Run
TTITLE5=Roberta Flack - Killing Me Softly With His Song
TTITLE6=Led Zeppelin - D'yer Mak'er
TTITLE7=Gilbert O'Sullivan - Clair
TTITLE8=Elton John - Goodbye Yellow Brick Road
TTITLE9=Grand Funk - We're an American Band
TTITLE10=Billy Joel - Piano Man
TTITLE11=Bob Marley - I Shot the Sheriff
TTITLE12=The Carpenters - Yesterday Once More
TTITLE13=Nazareth - Razamanaz
TTITLE14=Deep Purple - Woman from Tokyo
EXTD=
EXTT0=
EXTT1=
EXTT2=
EXTT3=
EXTT4=
EXTT5=
EXTT6=
EXTT7=
EXTT8=
EXTT9=
EXTT10=
EXTT11=
EXTT12=
EXTT13=
EXTT14=
PLAYORDER=
